<svg xmlns="http://www.w3.org/2000/svg" id="budget" enable-background="new 0 0 66 66" viewBox="0 0 66 66">
  <path fill="#f9cfcf" d="M56.41,56.4c0,0.85-0.34,1.62-0.9,2.18c-0.56,0.56-1.33,0.9-2.18,0.9H25c-0.85,0-1.54-0.69-1.54-1.54c0-0.42-0.17-0.81-0.45-1.09c-0.28-0.28-0.66-0.45-1.09-0.45h-6.41c-0.85,0-1.54-0.69-1.54-1.54V51.4c0-0.85-0.69-1.54-1.54-1.54h-2.4c-1.7,0-3.08-1.38-3.08-3.08c0-0.85,0.34-1.62,0.9-2.18c0.56-0.56,1.33-0.9,2.18-0.9h7.8c0.85,0,1.54-0.69,1.54-1.54v-4.85H6.54c-1.59,0-2.87-1.29-2.87-2.87c0-0.79,0.32-1.51,0.84-2.03c0.52-0.52,1.24-0.84,2.03-0.84h12.84v-3.89c0-0.85-0.69-1.54-1.54-1.54H9.57c-1.7,0-3.08-1.38-3.08-3.08c0-0.85,0.34-1.62,0.9-2.18c0.56-0.56,1.33-0.9,2.18-0.9h18.52c0.85,0,1.54-0.69,1.54-1.54v-0.79c0-0.85,0.69-1.54,1.54-1.54h25.52c1.7,0,3.08,1.38,3.08,3.08c0,0.85-0.34,1.62-0.9,2.18c-0.56,0.56-1.33,0.9-2.18,0.9h-9.77c-1.44,0-2.6,1.17-2.6,2.6c0,1.44,1.17,2.6,2.6,2.6h5.93c1.7,0,3.08,1.38,3.08,3.08c0,0.85-0.34,1.62-0.9,2.18c-0.56,0.56-1.33,0.9-2.18,0.9h-5.65c-1.59,0-2.88,1.29-2.88,2.88v13.93c0,1.59,1.29,2.88,2.88,2.88h6.14C55.03,53.33,56.41,54.71,56.41,56.4z"></path>
  <path fill="#f9cfcf" d="M61.51 26.53l.17.96c.03.17-.15.3-.3.22l-.87-.46c-.06-.03-.13-.03-.19 0l-.87.46c-.15.08-.33-.05-.3-.22l.17-.97c.01-.07-.01-.14-.06-.18l-.7-.68c-.12-.12-.06-.33.12-.36l.97-.14c.07-.01.13-.05.16-.11l.43-.88c.08-.16.3-.16.37 0l.43.88c.03.06.09.1.16.11l.97.14c.17.03.24.24.12.36l-.7.68C61.52 26.39 61.5 26.46 61.51 26.53zM56.06 47.37c0 .38-.3.68-.68.68-.38 0-.68-.3-.68-.68 0-.38.31-.68.68-.68C55.75 46.69 56.06 47 56.06 47.37zM11.53 12.3c0 .46-.37.83-.83.83-.45 0-.83-.37-.83-.83 0-.45.37-.83.83-.83C11.16 11.47 11.53 11.84 11.53 12.3zM10.23 57.4c0 .46-.37.83-.83.83-.45 0-.83-.37-.83-.83 0-.45.37-.83.83-.83C9.86 56.58 10.23 56.95 10.23 57.4z"></path>
  <path fill="#e9b4b4" d="M44.57,8.71c-0.09,0-0.17-0.03-0.24-0.1L42.82,7.1c-0.13-0.13-0.13-0.35,0-0.48c0.13-0.13,0.35-0.13,0.48,0l1.51,1.51c0.13,0.13,0.13,0.35,0,0.48C44.74,8.68,44.65,8.71,44.57,8.71z"></path>
  <path fill="#e9b4b4" d="M43.06,8.71c-0.09,0-0.17-0.03-0.24-0.1c-0.13-0.13-0.13-0.35,0-0.48l1.51-1.51c0.13-0.13,0.35-0.13,0.48,0c0.13,0.13,0.13,0.35,0,0.48L43.3,8.61C43.23,8.68,43.15,8.71,43.06,8.71z"></path>
  <g>
    <path fill="#fff" d="M43.77,46.86c0,4.69-2.53,7.4-6.46,9.92c-0.53,0.33-1.17,0.51-1.82,0.51H18.03c-0.66,0-1.3-0.17-1.82-0.51c-3.93-2.52-6.46-5.23-6.46-9.92c0-4.64,5.51-13.12,10.26-19.57h13.5c0.68,0.93,1.38,1.9,2.07,2.9c3.56,5.08,7.04,10.8,7.95,14.83C43.68,45.68,43.77,46.3,43.77,46.86z"></path>
    <path fill="#294157" d="M43.53 45.02h-4.78c-1.75 0-3.17-1.42-3.17-3.17V30.19C39.14 35.27 42.63 40.99 43.53 45.02zM22.12 29.32c-4.75 6.45-10.26 14.93-10.26 19.57 0 2.64.8 4.65 2.2 6.35-2.68-2.14-4.31-4.62-4.31-8.39 0-4.64 5.51-13.12 10.26-19.57h13.5c.48.66.98 1.34 1.47 2.04H22.12z" opacity=".1"></path>
    <path fill="#241c70" d="M35.49,57.97H18.03c-0.8,0-1.56-0.21-2.19-0.62c-3.52-2.25-6.77-5.08-6.77-10.49c0-3.89,3.5-10.61,10.39-19.98c0.13-0.17,0.33-0.28,0.55-0.28h13.5c0.22,0,0.42,0.1,0.55,0.28c6.89,9.37,10.39,16.09,10.39,19.98c0,5.41-3.25,8.24-6.77,10.49C37.06,57.75,36.28,57.97,35.49,57.97z M20.35,27.97c-6.49,8.86-9.92,15.39-9.92,18.89c0,4.49,2.45,6.98,6.14,9.34c0.41,0.26,0.92,0.4,1.46,0.4h17.46c0.53,0,1.05-0.14,1.46-0.4c3.69-2.36,6.14-4.85,6.14-9.34c0-3.51-3.43-10.04-9.92-18.89H20.35z"></path>
    <path fill="#fff" d="M34.8,25.3L34.8,25.3c0,1.1-0.89,1.99-1.99,1.99H20.7c-1.1,0-1.99-0.89-1.99-1.99v0c0-1.1,0.89-1.99,1.99-1.99h12.12C33.91,23.31,34.8,24.2,34.8,25.3z"></path>
    <path fill="#294157" d="M34.73,24.78c-0.19-0.06-0.4-0.1-0.61-0.1H22.01c-0.55,0-1.05,0.23-1.41,0.58c-0.36,0.36-0.59,0.86-0.59,1.41c0,0.18,0.03,0.35,0.08,0.52c-0.81-0.25-1.39-1-1.39-1.89c0-0.55,0.22-1.04,0.58-1.41c0.36-0.36,0.85-0.58,1.41-0.58h12.12C33.74,23.32,34.51,23.94,34.73,24.78z" opacity=".1"></path>
    <path fill="#241c70" d="M32.82,27.97H20.7c-1.47,0-2.67-1.2-2.67-2.67c0-1.47,1.2-2.67,2.67-2.67h12.12c1.47,0,2.67,1.2,2.67,2.67C35.49,26.77,34.29,27.97,32.82,27.97z M20.7,24c-0.72,0-1.31,0.59-1.31,1.31c0,0.72,0.59,1.31,1.31,1.31h12.12c0.72,0,1.3-0.59,1.3-1.31c0-0.72-0.59-1.31-1.3-1.31H20.7z"></path>
    <path fill="#df5445" d="M31.39,23.31c1.98-2.23,3.27-4.19,3.27-6.82c0-4.36-3.54-0.26-7.9-0.26c-4.36,0-7.9-4.1-7.9,0.26c0,2.63,1.29,4.59,3.27,6.82H31.39z"></path>
    <path fill="#241c70" d="M31.69,24h-9.88l-0.2-0.23c-2.06-2.33-3.44-4.46-3.44-7.27c0-0.78,0.09-1.88,0.86-2.41c0.88-0.6,2.01-0.15,3.46,0.41c1.27,0.5,2.71,1.06,4.26,1.06s2.99-0.56,4.26-1.06c1.44-0.56,2.58-1.01,3.46-0.41c0.77,0.53,0.86,1.63,0.86,2.41c0,2.81-1.37,4.94-3.44,7.27L31.69,24z M22.43,22.63h8.64c1.79-2.06,2.89-3.83,2.89-6.14c0-1.05-0.22-1.25-0.27-1.28c-0.28-0.19-1.34,0.22-2.19,0.55c-1.32,0.51-2.95,1.15-4.76,1.15c-1.81,0-3.44-0.64-4.76-1.15c-0.85-0.33-1.91-0.74-2.19-0.55c-0.04,0.03-0.27,0.24-0.27,1.28C19.54,18.8,20.64,20.57,22.43,22.63z"></path>
    <path fill="#fff" d="M34.65,16.49c0,0.05,0,0.1-0.01,0.15c-1.45,0.4-3.58,1.62-5.94,1.62c-4.36,0-7.9-4.1-7.9,0.26c0,1.82,0.61,3.3,1.64,4.79h-0.31c-1.98-2.23-3.27-4.19-3.27-6.82c0-4.36,3.54-0.26,7.9-0.26C31.12,16.23,34.65,12.13,34.65,16.49z" opacity=".4"></path>
    <path fill="#241c70" d="M31.39,24h-9.26c-0.2,0-0.38-0.08-0.51-0.23c-2.06-2.33-3.44-4.46-3.44-7.27c0-0.78,0.09-1.88,0.86-2.41c0.88-0.6,2.01-0.15,3.46,0.41c1.27,0.5,2.71,1.06,4.26,1.06s2.99-0.56,4.26-1.06c1.44-0.56,2.58-1.01,3.46-0.41c0.77,0.53,0.86,1.63,0.86,2.41c0,2.81-1.37,4.94-3.44,7.27C31.77,23.91,31.58,24,31.39,24z M22.43,22.63h8.64c1.79-2.06,2.89-3.83,2.89-6.14c0-1.05-0.22-1.25-0.27-1.28c-0.28-0.19-1.34,0.22-2.19,0.55c-1.32,0.51-2.95,1.15-4.76,1.15c-1.81,0-3.44-0.64-4.76-1.15c-0.85-0.33-1.91-0.74-2.19-0.55c-0.04,0.03-0.27,0.24-0.27,1.28C19.54,18.8,20.64,20.57,22.43,22.63z"></path>
    <ellipse cx="26.76" cy="42.29" fill="#df5445" rx="8.71" ry="8.56"></ellipse>
    <path fill="#fff" d="M35.16,40c-1.57-2.25-4.2-3.73-7.19-3.73c-4.82,0-8.71,3.84-8.71,8.56c0,0.8,0.11,1.57,0.32,2.3c-0.97-1.38-1.53-3.05-1.53-4.85c0-4.73,3.9-8.56,8.71-8.56C30.77,33.72,34.14,36.38,35.16,40z" opacity=".4"></path>
    <path fill="#241c70" d="M26.76,51.53c-5.18,0-9.4-4.15-9.4-9.25s4.21-9.25,9.4-9.25c5.18,0,9.39,4.15,9.39,9.25S31.94,51.53,26.76,51.53z M26.76,34.4c-4.43,0-8.03,3.54-8.03,7.88s3.6,7.88,8.03,7.88s8.03-3.54,8.03-7.88S31.18,34.4,26.76,34.4z"></path>
    <path fill="#241c70" d="M26.76,42.97c-1.41,0-2.56-1.14-2.56-2.53c0-1.4,1.15-2.53,2.56-2.53c1.41,0,2.56,1.14,2.56,2.53c0,0.38-0.31,0.68-0.68,0.68c-0.38,0-0.68-0.31-0.68-0.68c0-0.64-0.54-1.17-1.2-1.17c-0.66,0-1.2,0.52-1.2,1.17c0,0.64,0.54,1.17,1.2,1.17c0.38,0,0.68,0.31,0.68,0.68S27.13,42.97,26.76,42.97z"></path>
    <path fill="#241c70" d="M26.76 46.67c-1.41 0-2.56-1.14-2.56-2.53 0-.38.31-.68.68-.68.38 0 .68.31.68.68 0 .64.54 1.17 1.2 1.17.66 0 1.2-.52 1.2-1.17s-.54-1.17-1.2-1.17c-.38 0-.68-.31-.68-.68s.31-.68.68-.68c1.41 0 2.56 1.14 2.56 2.53S28.17 46.67 26.76 46.67zM26.76 39.27c-.38 0-.68-.31-.68-.68v-1.03c0-.38.31-.68.68-.68.38 0 .68.31.68.68v1.03C27.44 38.96 27.13 39.27 26.76 39.27z"></path>
    <path fill="#241c70" d="M26.76 47.7c-.38 0-.68-.31-.68-.68v-1.03c0-.38.31-.68.68-.68.38 0 .68.31.68.68v1.03C27.44 47.39 27.13 47.7 26.76 47.7zM31.05 31.88c-.35 0-.65-.27-.68-.62-.18-1.87-1.73-3.28-3.61-3.28s-3.44 1.41-3.61 3.28c-.03.38-.36.66-.74.62-.38-.03-.65-.37-.62-.74.24-2.58 2.38-4.52 4.97-4.52s4.73 1.94 4.97 4.52c.04.38-.24.71-.62.74C31.09 31.88 31.07 31.88 31.05 31.88z"></path>
    <path fill="#fff" d="M56.5,20.54v21.32c0,0.62-0.5,1.12-1.12,1.12H38.75c-0.62,0-1.12-0.5-1.12-1.12V20.54c0-0.62,0.5-1.12,1.12-1.12h16.63C55.99,19.42,56.5,19.92,56.5,20.54z"></path>
    <g>
      <path fill="#241c70" d="M55.38,43.66H38.75c-0.99,0-1.8-0.81-1.8-1.8V20.54c0-0.99,0.81-1.8,1.8-1.8h16.63c0.99,0,1.8,0.81,1.8,1.8v21.32C57.18,42.85,56.37,43.66,55.38,43.66z M38.75,20.1c-0.24,0-0.44,0.2-0.44,0.44v21.32c0,0.24,0.2,0.44,0.44,0.44h16.63c0.24,0,0.44-0.2,0.44-0.44V20.54c0-0.24-0.2-0.44-0.44-0.44H38.75z"></path>
    </g>
    <g>
      <rect width="13.41" height="4.65" x="40.36" y="22.15" fill="#df5445"></rect>
    </g>
    <g opacity=".4">
      <rect width="13.41" height="1.56" x="40.36" y="22.15" fill="#fff"></rect>
    </g>
    <g>
      <path fill="#241c70" d="M54.45,27.47H39.68v-6.01h14.77V27.47z M41.04,26.11h12.04v-3.28H41.04V26.11z"></path>
    </g>
    <g>
      <path fill="#241c70" d="M43.21 31.26h-1.86c-.38 0-.68-.31-.68-.68 0-.38.31-.68.68-.68h1.86c.38 0 .68.31.68.68C43.89 30.95 43.59 31.26 43.21 31.26zM47.99 31.26h-1.86c-.38 0-.68-.31-.68-.68 0-.38.31-.68.68-.68h1.86c.38 0 .68.31.68.68C48.68 30.95 48.37 31.26 47.99 31.26zM52.78 31.26h-1.87c-.38 0-.68-.31-.68-.68 0-.38.31-.68.68-.68h1.87c.38 0 .68.31.68.68C53.46 30.95 53.16 31.26 52.78 31.26z"></path>
    </g>
    <g>
      <path fill="#241c70" d="M43.21 35.31h-1.86c-.38 0-.68-.31-.68-.68 0-.38.31-.68.68-.68h1.86c.38 0 .68.31.68.68C43.89 35 43.59 35.31 43.21 35.31zM47.99 35.31h-1.86c-.38 0-.68-.31-.68-.68 0-.38.31-.68.68-.68h1.86c.38 0 .68.31.68.68C48.68 35 48.37 35.31 47.99 35.31zM52.78 35.31h-1.87c-.38 0-.68-.31-.68-.68 0-.38.31-.68.68-.68h1.87c.38 0 .68.31.68.68C53.46 35 53.16 35.31 52.78 35.31z"></path>
    </g>
    <g>
      <path fill="#241c70" d="M43.21 39.36h-1.86c-.38 0-.68-.31-.68-.68S40.97 38 41.35 38h1.86c.38 0 .68.31.68.68S43.59 39.36 43.21 39.36zM47.99 39.36h-1.86c-.38 0-.68-.31-.68-.68S45.75 38 46.13 38h1.86c.38 0 .68.31.68.68S48.37 39.36 47.99 39.36zM52.78 39.36h-1.87c-.38 0-.68-.31-.68-.68S50.54 38 50.91 38h1.87c.38 0 .68.31.68.68S53.16 39.36 52.78 39.36z"></path>
    </g>
  </g>
</svg>
