<svg xmlns="http://www.w3.org/2000/svg" enable-background="new 0 0 512 512" viewBox="0 0 512 512" id="calander">
  <g>
    <g>
      <linearGradient id="a" x1="284.966" x2="226.578" y1="-205.851" y2="880.166" gradientUnits="userSpaceOnUse">
        <stop offset="0" stop-color="#eae9fe"></stop>
        <stop offset=".424" stop-color="#eeeefe"></stop>
        <stop offset=".897" stop-color="#fbfbff"></stop>
        <stop offset="1" stop-color="#fff"></stop>
      </linearGradient>
      <path fill="url(#a)" d="M468.836,264.275c-9.501-7.393-20.976-13.763-25.395-24.961
			c-6.01-15.229,3.596-31.571,9.261-46.931c17.297-46.899-4.903-102.439-44.732-132.645
			c-75.982-57.623-224.302-37.425-245.028,42.219c-8.768,33.692,6.941,72.131-9.131,103.013
			c-20.278,38.966-74.073,41.594-108.719,58.921C2.169,285.358-6.419,332.1,24.365,367.686
			c11.304,13.068,25.769,22.07,36.136,36.348c15.001,20.659,23.415,43.504,43.486,60.545c28.263,23.996,75.517,29.946,100.538,2.586
			c14.089-15.407,18.674-38.106,34.054-52.225c20.245-18.586,52.242-16.086,78.004-6.514c25.762,9.571,49.654,25.026,76.789,29.381
			c42.426,6.81,87.917-18.085,105.053-57.489S502.748,290.664,468.836,264.275z"></path>
      <path fill="#ededed" d="M466.572,97.262v263.86h-73.974c-7.289,0-13.198,5.909-13.198,13.198v73.974H58.625
			c-7.289,0-13.198-5.909-13.198-13.198V97.262c0-7.289,5.909-13.198,13.198-13.198h394.749
			C460.664,84.064,466.572,89.973,466.572,97.262z"></path>
      <path fill="#ff5859" d="M466.572,97.251v79.187H45.438V97.251c0-7.289,5.909-13.198,13.198-13.198h394.738
			C460.663,84.053,466.572,89.962,466.572,97.251z"></path>
      <path fill="#386e93" d="M466.572,361.122h-73.974c-7.289,0-13.198,5.909-13.198,13.198v73.974L466.572,361.122z"></path>
      <path fill="#ededed" d="M419.882,127.898c0,13.729-11.157,24.838-24.886,24.838c-13.728,0-24.886-11.109-24.886-24.838
			c0-13.776,11.158-24.886,24.886-24.886C408.724,103.013,419.882,114.122,419.882,127.898z"></path>
      <path fill="#386e93" d="M409.646,113.224V56.762c0-8.091-6.559-14.651-14.651-14.651h0
			c-8.091,0-14.651,6.559-14.651,14.651v56.462c0,8.091,6.559,14.651,14.651,14.651h0
			C403.087,127.874,409.646,121.315,409.646,113.224z"></path>
      <path fill="#ededed" d="M141.901,127.898c0,13.729-11.157,24.838-24.886,24.838c-13.728,0-24.886-11.109-24.886-24.838
			c0-13.776,11.158-24.886,24.886-24.886C130.743,103.013,141.901,114.122,141.901,127.898z"></path>
      <path fill="#386e93" d="M131.665,113.224V56.762c0-8.091-6.559-14.651-14.651-14.651h0
			c-8.091,0-14.651,6.559-14.651,14.651v56.462c0,8.091,6.559,14.651,14.651,14.651h0
			C125.106,127.874,131.665,121.315,131.665,113.224z"></path>
      <path fill="#332e8e" d="M58.626,452.461h320.774c1.118,0,2.184-0.457,2.949-1.223l87.168-87.166
			c0.633-0.632,1.224-1.746,1.224-2.95V176.438V97.262v-0.011c0-9.576-7.79-17.366-17.366-17.366h-39.561V56.762
			c0-10.376-8.441-18.817-18.817-18.817c-10.379,0-18.82,8.441-18.82,18.817v23.123H135.832V56.762
			c0-10.376-8.441-18.817-18.817-18.817s-18.817,8.441-18.817,18.817v23.123H58.637c-9.571,0-17.377,7.795-17.377,17.377v337.834
			C41.26,444.671,49.05,452.461,58.626,452.461z M383.567,438.232V374.32c0-4.979,4.051-9.03,9.03-9.03h63.914L383.567,438.232z
			 M384.511,56.762c0-5.78,4.702-10.482,10.484-10.482c5.78,0,10.482,4.702,10.482,10.482v56.463c0,5.78-4.702,10.482-10.482,10.482
			c-5.782,0-10.484-4.702-10.484-10.482V56.762z M376.822,118.031c2.133,8.051,9.46,14.01,18.174,14.01
			c8.725,0,16.06-5.977,18.181-14.045c1.613,2.943,2.536,6.315,2.536,9.902c0,11.398-9.293,20.671-20.717,20.671
			c-11.426,0-20.719-9.273-20.719-20.671C374.276,124.32,375.212,120.967,376.822,118.031z M106.533,56.762
			c0-5.78,4.702-10.482,10.482-10.482s10.482,4.702,10.482,10.482v56.463c0,5.78-4.702,10.482-10.482,10.482
			s-10.482-4.702-10.482-10.482V56.762z M98.842,118.026c2.131,8.053,9.459,14.016,18.173,14.016
			c8.717,0,16.046-5.966,18.175-14.023c1.61,2.94,2.545,6.298,2.545,9.879c0,11.398-9.293,20.671-20.719,20.671
			s-20.719-9.273-20.719-20.671C96.296,124.318,97.235,120.966,98.842,118.026z M49.606,97.251c0-4.978,4.045-9.019,9.019-9.019
			h39.572v17.643C91.958,111.2,87.96,119.07,87.96,127.898c0,15.994,13.035,29.006,29.055,29.006s29.055-13.012,29.055-29.006
			c0-8.838-3.987-16.742-10.238-22.072V88.231h240.343v17.638c-6.239,5.327-10.235,13.201-10.235,22.029
			c0,15.994,13.035,29.006,29.055,29.006c16.02,0,29.052-13.012,29.052-29.006c0-8.824-4.002-16.683-10.235-22.01V88.231h39.561
			c4.979,0,9.03,4.051,9.03,9.03v75.009H49.606V97.251z M49.596,180.606h412.809v176.348h-69.807
			c-9.576,0-17.366,7.79-17.366,17.366v69.806H58.626c-4.979,0-9.03-4.051-9.03-9.03V180.606z"></path>
    </g>
  </g>
</svg>
