<svg xmlns="http://www.w3.org/2000/svg" width="32" height="32" id="color">
  <g transform="translate(-134.503 -1368.397)">
    <path fill="#f1d7c0" d="M158.5 1381.761a3.962 3.962 0 0 1-2.838-2.924 4.027 4.027 0 0 1 .157-2.367c.655-1.698-.163-3.605-1.914-4.102a12.48 12.48 0 0 0-4.6-.414c-5.758.546-10.49 5.115-11.197 10.854-1.005 8.15 5.84 14.995 13.99 13.991 5.583-.688 10.097-5.19 10.808-10.77.044-.344.073-.685.09-1.023.083-1.739-1.404-3.25-3.14-3.12-.436.032-.892 0-1.356-.125z" class="st4"></path>
    <circle cx="151.01" cy="1375.897" r="2" fill="#5da692" class="st1"></circle>
    <circle cx="145.01" cy="1378.897" r="2" fill="#51c9ec" class="st5"></circle>
    <circle cx="153.01" cy="1391.897" r="2" fill="#d4b4d6" class="st6"></circle>
    <circle cx="158.01" cy="1387.897" r="2" fill="#f9e491" class="st3"></circle>
    <circle cx="143.01" cy="1384.897" r="2" fill="#cf948f" class="st2"></circle>
    <circle cx="151.01" cy="1383.897" r="3" fill="#f47a65" class="st7"></circle>
    <circle cx="146.01" cy="1390.897" r="2" fill="#8e98b8" class="st8"></circle>
    <path fill="#fff" d="M151.01 1373.897a2 2 0 0 0-2 2 2 2 0 0 0 2 2 2 2 0 0 0 .504-.064 2 2 0 0 1-1.504-1.936 2 2 0 0 1 1.496-1.935 2 2 0 0 0-.496-.065zm-6 3a2 2 0 0 0-2 2 2 2 0 0 0 2 2 2 2 0 0 0 .504-.064 2 2 0 0 1-1.504-1.936 2 2 0 0 1 1.496-1.935 2 2 0 0 0-.496-.065zm8 13a2 2 0 0 0-2 2 2 2 0 0 0 2 2 2 2 0 0 0 .504-.064 2 2 0 0 1-1.504-1.936 2 2 0 0 1 1.496-1.935 2 2 0 0 0-.496-.065zm5-4a2 2 0 0 0-2 2 2 2 0 0 0 2 2 2 2 0 0 0 .504-.064 2 2 0 0 1-1.504-1.936 2 2 0 0 1 1.496-1.935 2 2 0 0 0-.496-.065zm-15-3a2 2 0 0 0-2 2 2 2 0 0 0 2 2 2 2 0 0 0 .504-.064 2 2 0 0 1-1.504-1.936 2 2 0 0 1 1.496-1.935 2 2 0 0 0-.496-.065zm8-2a3 3 0 0 0-3 3 3 3 0 0 0 3 3 3 3 0 0 0 .513-.043 3 3 0 0 1-2.513-2.957 3 3 0 0 1 2.486-2.957 3 3 0 0 0-.486-.043zm-5 8a2 2 0 0 0-2 2 2 2 0 0 0 2 2 2 2 0 0 0 .504-.064 2 2 0 0 1-1.504-1.936 2 2 0 0 1 1.496-1.935 2 2 0 0 0-.496-.065z"></path>
    <path fill="#fff" d="M150.498 1371.897c-.394 0-.791.019-1.193.057-5.758.546-10.49 5.114-11.198 10.853-.97 7.864 5.375 14.493 13.143 14.047-7.067-.42-12.56-6.693-11.652-14.047.707-5.739 5.439-10.307 11.197-10.853.157-.015.31-.013.467-.022-.254-.015-.506-.035-.764-.035z"></path>
    <path fill="#444a54" d="M162.425 1382.355a3.393 3.393 0 0 0-2.608-.969 3.734 3.734 0 0 1-1.193-.109 3.45 3.45 0 0 1-2.475-2.55 3.547 3.547 0 0 1 .136-2.077 3.729 3.729 0 0 0-.121-3.003 3.38 3.38 0 0 0-2.123-1.76 12.943 12.943 0 0 0-4.784-.43c-6.012.57-10.91 5.317-11.646 11.29-.498 4.037.854 7.99 3.706 10.842a12.943 12.943 0 0 0 9.197 3.808c.545 0 1.094-.033 1.645-.102 5.777-.71 10.506-5.423 11.242-11.202.046-.356.076-.71.093-1.063a3.506 3.506 0 0 0-1.07-2.675zm-.016 3.611c-.68 5.333-5.042 9.681-10.373 10.337-3.735.455-7.38-.788-10.012-3.42-2.634-2.634-3.88-6.284-3.421-10.014.68-5.51 5.2-9.892 10.748-10.416.389-.037.777-.056 1.164-.056 1.104 0 2.194.15 3.252.451a2.39 2.39 0 0 1 1.502 1.246 2.73 2.73 0 0 1 .082 2.196 4.545 4.545 0 0 0-.177 2.658 4.46 4.46 0 0 0 3.2 3.297c.509.13 1.02.174 1.518.14.677-.055 1.335.2 1.836.687.52.508.802 1.204.769 1.91-.017.325-.046.652-.088.984z" class="st21"></path>
    <path fill="#444a54" d="M151.01 1378.397c1.379 0 2.5-1.12 2.5-2.5 0-1.379-1.121-2.5-2.5-2.5a2.502 2.502 0 0 0-2.5 2.5c0 1.38 1.12 2.5 2.5 2.5zm0-4c.827 0 1.5.673 1.5 1.5s-.673 1.5-1.5 1.5-1.5-.673-1.5-1.5.673-1.5 1.5-1.5zm-6 7c1.379 0 2.5-1.12 2.5-2.5 0-1.379-1.121-2.5-2.5-2.5a2.502 2.502 0 0 0-2.5 2.5c0 1.38 1.12 2.5 2.5 2.5zm0-4c.827 0 1.5.673 1.5 1.5s-.673 1.5-1.5 1.5-1.5-.673-1.5-1.5.673-1.5 1.5-1.5zm8 12a2.502 2.502 0 0 0-2.5 2.5c0 1.38 1.12 2.5 2.5 2.5 1.379 0 2.5-1.12 2.5-2.5 0-1.379-1.121-2.5-2.5-2.5zm0 4c-.827 0-1.5-.673-1.5-1.5s.673-1.5 1.5-1.5 1.5.673 1.5 1.5-.673 1.5-1.5 1.5zm5-8a2.502 2.502 0 0 0-2.5 2.5c0 1.38 1.12 2.5 2.5 2.5 1.379 0 2.5-1.12 2.5-2.5 0-1.379-1.121-2.5-2.5-2.5zm0 4c-.827 0-1.5-.673-1.5-1.5s.673-1.5 1.5-1.5 1.5.673 1.5 1.5-.673 1.5-1.5 1.5zm-12.5-4.5c0-1.379-1.121-2.5-2.5-2.5a2.502 2.502 0 0 0-2.5 2.5c0 1.38 1.12 2.5 2.5 2.5 1.379 0 2.5-1.12 2.5-2.5zm-2.5 1.5c-.827 0-1.5-.673-1.5-1.5s.673-1.5 1.5-1.5 1.5.673 1.5 1.5-.673 1.5-1.5 1.5zm11.5-2.5c0-1.93-1.57-3.5-3.5-3.5s-3.5 1.57-3.5 3.5 1.57 3.5 3.5 3.5 3.5-1.57 3.5-3.5zm-6 0c0-1.379 1.12-2.5 2.5-2.5 1.379 0 2.5 1.121 2.5 2.5 0 1.38-1.121 2.5-2.5 2.5a2.502 2.502 0 0 1-2.5-2.5zm-2.5 4.5a2.502 2.502 0 0 0-2.5 2.5c0 1.38 1.12 2.5 2.5 2.5 1.379 0 2.5-1.12 2.5-2.5 0-1.379-1.121-2.5-2.5-2.5zm0 4c-.827 0-1.5-.673-1.5-1.5s.673-1.5 1.5-1.5 1.5.673 1.5 1.5-.673 1.5-1.5 1.5z" class="st21"></path>
  </g>
</svg>
