<svg xmlns="http://www.w3.org/2000/svg" enable-background="new 0 0 1024 1024" viewBox="0 0 1024 1024" id="modular-sofa">
  <path d="M407.5,351.5h-223v-63h223V351.5z M199.5,336.5h193v-33h-193V336.5z"></path>
  <path d="M376.56,527.5H215.44c-17.06,0-30.94-13.88-30.94-30.94V336.5h223v160.06C407.5,513.62,393.62,527.5,376.56,527.5z
			 M199.5,351.5v145.06c0,8.79,7.15,15.94,15.94,15.94h161.12c8.79,0,15.94-7.15,15.94-15.94V351.5H199.5z"></path>
  <path d="M615.5,351.5h-223v-63h223V351.5z M407.5,336.5h193v-33h-193V336.5z"></path>
  <path d="M584.56,527.5H423.44c-17.06,0-30.94-13.88-30.94-30.94V336.5h223v160.06C615.5,513.62,601.62,527.5,584.56,527.5z
			 M407.5,351.5v145.06c0,8.79,7.15,15.94,15.94,15.94h161.12c8.79,0,15.94-7.15,15.94-15.94V351.5H407.5z"></path>
  <path d="M839.5,351.5h-239v-63h239V351.5z M615.5,336.5h209v-33h-209V336.5z"></path>
  <path d="M808.56 735.5H631.44c-17.06 0-30.94-13.88-30.94-30.94V336.5h239v368.06C839.5 721.62 825.62 735.5 808.56 735.5zM615.5 351.5v353.06c0 8.79 7.15 15.94 15.94 15.94h177.12c8.79 0 15.94-7.15 15.94-15.94V351.5H615.5zM182.81 495.5h-45.62c-9.2 0-16.69-7.49-16.69-16.69V314.96c0-14.59 11.87-26.46 26.46-26.46h52.54v190.31C199.5 488.01 192.01 495.5 182.81 495.5zM146.96 303.5c-6.32 0-11.46 5.14-11.46 11.46v163.85c0 .93.76 1.69 1.69 1.69h45.62c.93 0 1.69-.76 1.69-1.69V303.5H146.96z"></path>
  <path d="M886.81,527.5h-45.62c-9.2,0-16.69-7.49-16.69-16.69V288.5h52.54c14.59,0,26.46,11.87,26.46,26.46v195.85
			C903.5,520.01,896.01,527.5,886.81,527.5z M839.5,303.5v207.31c0,0.93,0.76,1.69,1.69,1.69h45.62c0.93,0,1.69-0.76,1.69-1.69
			V314.96c0-6.32-5.14-11.46-11.46-11.46H839.5z"></path>
</svg>
