<svg xmlns="http://www.w3.org/2000/svg" viewBox="0 0 128 128" id="quality">
  <path fill="#ff8a65" d="m90.69 74.16 14.7 45.12-16.48-5.16L78.65 128 65.04 86.23M36.17 75.14l-13.56 44.14 16.48-5.16L49.35 128l12.72-41.56"></path>
  <path fill="#ffe082" d="m68.07 3.2 3.76-2.13a8.26 8.26 0 0 1 11.38 3.34l2 3.83a8.26 8.26 0 0 0 6.84 4.4l4.32.24a8.26 8.26 0 0 1 7.76 9l-.37 4.31a8.26 8.26 0 0 0 3.38 7.4l3.5 2.54a8.26 8.26 0 0 1 1.69 11.73l-2.64 3.42a8.26 8.26 0 0 0-1.16 8.05l1.57 4a8.26 8.26 0 0 1-4.92 10.78l-4.07 1.45a8.26 8.26 0 0 0-5.33 6.15l-.85 4.24a8.26 8.26 0 0 1-10 6.41l-4.21-1a8.26 8.26 0 0 0-7.81 2.29l-3 3.1a8.26 8.26 0 0 1-11.85 0l-3-3.1a8.26 8.26 0 0 0-7.81-2.29l-4.21 1a8.26 8.26 0 0 1-10-6.41l-.85-4.24a8.26 8.26 0 0 0-5.33-6.15l-4.07-1.45a8.26 8.26 0 0 1-4.92-10.78l1.57-4a8.26 8.26 0 0 0-1.16-8.05l-2.64-3.42a8.26 8.26 0 0 1 1.69-11.73l3.5-2.54a8.26 8.26 0 0 0 3.38-7.4l-.37-4.31a8.26 8.26 0 0 1 7.76-9l4.32-.24a8.26 8.26 0 0 0 6.84-4.4l2-3.83a8.26 8.26 0 0 1 11.41-3.34l3.76 2.13a8.26 8.26 0 0 0 8.14 0Z"></path>
  <circle cx="64" cy="49.64" r="20.55" fill="#fff"></circle>
  <path fill="#ffb74d" d="M64 29.09a20.55 20.55 0 1 1-20.55 20.55A20.55 20.55 0 0 1 64 29.09m0-8a28.55 28.55 0 1 0 28.55 28.55A28.58 28.58 0 0 0 64 21.09Z"></path>
</svg>
