<?xml version="1.0" standalone="no"?>
<!DOCTYPE svg PUBLIC "-//W3C//DTD SVG 20010904//EN"
 "http://www.w3.org/TR/2001/REC-SVG-20010904/DTD/svg10.dtd">
<svg version="1.0" xmlns="http://www.w3.org/2000/svg"
 width="640.000000pt" height="640.000000pt" viewBox="0 0 640.000000 640.000000"
 preserveAspectRatio="xMidYMid meet">

<g transform="translate(0.000000,640.000000) scale(0.100000,-0.100000)"
fill="#000000" stroke="none">
<path d="M2960 5636 l-85 -11 -3 -1042 -2 -1043 -200 0 -200 0 -2 994 -3 995
-113 -45 c-121 -47 -323 -146 -347 -171 -13 -12 -15 -133 -15 -894 l0 -879
-200 0 -200 0 0 737 0 738 -96 -95 c-406 -404 -657 -934 -715 -1515 -14 -146
-7 -439 16 -580 71 -454 250 -851 548 -1220 62 -77 262 -273 357 -349 538
-432 1223 -618 1905 -517 423 63 825 238 1165 509 127 100 338 315 427 432
357 474 529 1008 510 1580 -5 152 -29 365 -42 378 -3 3 -71 -49 -152 -114 -82
-66 -308 -247 -503 -403 -195 -156 -361 -291 -368 -300 -10 -12 -12 -81 -10
-314 l3 -297 -202 0 -203 0 0 1619 c0 1533 -1 1619 -17 1624 -10 3 -66 23
-124 46 -59 22 -158 54 -220 70 l-114 29 -3 -1029 -2 -1029 -200 0 -200 0 0
1055 0 1055 -152 -1 c-84 -1 -191 -7 -238 -13z m567 -2497 c28 -53 7 -138 -42
-177 -27 -21 -36 -22 -311 -22 l-284 0 0 -441 0 -440 186 2 c149 1 188 -1 195
-12 13 -19 1 -85 -23 -136 l-20 -43 -168 0 -169 0 -3 -312 c-4 -347 -11 -389
-68 -447 -45 -44 -80 -48 -141 -14 -54 29 -119 103 -119 134 0 15 8 19 40 19
34 0 42 4 57 33 16 28 18 67 21 310 l4 277 -82 0 c-95 0 -121 13 -144 71 -40
98 -19 119 120 119 l104 0 0 441 0 441 -67 -7 c-380 -40 -572 -229 -573 -565
0 -55 7 -121 16 -155 25 -97 104 -218 150 -229 20 -5 24 -13 24 -42 0 -76 -64
-154 -128 -154 -30 0 -44 8 -83 49 -79 82 -151 224 -180 356 -21 92 -15 293
10 390 83 314 308 491 700 550 72 11 200 15 506 15 247 0 416 4 425 10 20 13
33 8 47 -21z m162 -278 c43 -31 65 -76 65 -136 1 -180 -245 -228 -309 -61 -32
84 3 178 80 212 43 20 125 13 164 -15z m-99 -591 c22 -11 45 -30 52 -43 10
-17 14 -116 16 -407 1 -212 4 -395 7 -407 14 -59 75 -70 129 -23 42 37 70 95
101 212 26 99 45 128 83 128 28 0 77 -48 86 -85 13 -52 -61 -238 -131 -329
-141 -184 -380 -182 -462 4 -19 42 -20 71 -22 498 -2 380 0 455 12 463 24 15
88 10 129 -11z"/>
</g>
</svg>
